<?xml version="1.0" encoding="utf-8"?><svg width="169" height="111" viewBox="0 0 169 111" xmlns="http://www.w3.org/2000/svg" xmlns:xlink="http://www.w3.org/1999/xlink"><view id="arrow" viewBox="149.75 53.13 6.1 10.97"/><svg width="6.1" height="10.97" viewBox="0 0 6.1 10.97" x="149.75" y="53.13" xmlns="http://www.w3.org/2000/svg"><defs><style>.acls-1{fill:#262626;fill-rule:evenodd}</style></defs><path class="acls-1" d="M.55 10.97a.53.53 0 01-.41-.19.6.6 0 01-.15-.4.631.631 0 01.17-.43l4.55-4.47L.16 1A.607.607 0 01-.01.58.629.629 0 01.14.17a.559.559 0 01.8-.02l4.98 4.9.01.01a.657.657 0 01.12.17.7.7 0 01.05.25.742.742 0 01-.05.25.61.61 0 01-.12.16c0 .01-.01.01-.01.02l-4.98 4.9a.589.589 0 01-.39.16z"/></svg><view id="calendar" viewBox="0 0 64 58.67"/><svg viewBox="0 0 64 58.67" width="64" height="58.67" xmlns="http://www.w3.org/2000/svg"><defs><style>.bcls-1{fill:#222933}</style></defs><g id="bLayer_2" data-name="Layer 2"><g id="bLayer_1-2" data-name="Layer 1"><path class="bcls-1" d="M56 10.67h-5.33v-8a2.67 2.67 0 00-5.34 0v8H18.67v-8a2.67 2.67 0 00-5.34 0v8H8a8 8 0 00-8 8v32a8 8 0 008 8h48a8 8 0 008-8v-32a8 8 0 00-8-8zm2.67 40A2.67 2.67 0 0156 53.33H8a2.67 2.67 0 01-2.67-2.66V32h53.34zm0-24H5.33v-8A2.68 2.68 0 018 16h5.33v2.67a2.67 2.67 0 005.34 0V16h26.66v2.67a2.67 2.67 0 005.34 0V16H56a2.68 2.68 0 012.67 2.67z"/><rect class="bcls-1" x="42.67" y="37.44" width="10.67" height="10.67" rx="2.67" ry="2.67"/></g></g></svg><view id="delivery" viewBox="64 0 53.75 36.44"/><svg id="cГруппа_2" data-name="Группа 2" width="53.75" height="36.44" viewBox="0 0 53.75 36.44" x="64" xmlns="http://www.w3.org/2000/svg"><defs><style>.ccls-1,.ccls-2{fill:#a3bbc8}.ccls-1{fill-rule:evenodd}.ccls-2{opacity:.34}</style></defs><path id="cdelivery-truck" class="ccls-1" d="M812.816 1025.33h-6.126a.79.79 0 000 1.58h6.126a.79.79 0 000-1.58zm.524 11.01h-5.6a.785.785 0 100 1.57h5.6a.785.785 0 100-1.57zm-2.094-4.72H804.6a.79.79 0 000 1.58h6.65a.79.79 0 00-.004-1.58zm0 11.01h-.646a.785.785 0 100 1.57h.644a.785.785 0 10.002-1.57zm-3.263 0H804.6a.785.785 0 100 1.57h3.387a.785.785 0 10-.004-1.57zm36.86-19.86h-6.657v-1.42a.784.784 0 00-.786-.78h-12.175a.785.785 0 100 1.57h11.39v17.22a.786.786 0 101.571 0v-15.02h6.657a6.519 6.519 0 016.509 6.52v13.29h-2a4.974 4.974 0 00-9.824 0h-1.345v-1.12a.786.786 0 10-1.571 0v1.12h-8.336a4.974 4.974 0 00-9.823 0h-1.634v-22.01h5.261a.785.785 0 100-1.57h-6.046a.783.783 0 00-.785.78v23.59a.791.791 0 00.785.79h2.419a4.974 4.974 0 009.823 0h11.252a4.974 4.974 0 009.824 0h2.782a.791.791 0 00.785-.79v-14.08a8.094 8.094 0 00-8.076-8.09zm-21.475 25.58a3.41 3.41 0 113.4-3.41 3.411 3.411 0 01-3.4 3.41zm21.075 0a3.411 3.411 0 01-3.4-3.41 3.4 3.4 0 113.4 3.41zm.4-22.44h-4.3a.791.791 0 00-.785.79v7.39a.791.791 0 00.785.79H849a.792.792 0 00.786-.79v-3.23a4.949 4.949 0 00-4.943-4.95zm3.367 7.39h-6.882v-5.81h3.515a3.371 3.371 0 013.367 3.37v2.44zm-24.842 9.61a2.03 2.03 0 102.024 2.03 2.029 2.029 0 00-2.024-2.03zm0 2.49a.46.46 0 01-.455-.46.455.455 0 01.909 0 .46.46 0 01-.454.46zm21.075-2.49a2.03 2.03 0 102.025 2.03 2.03 2.03 0 00-2.025-2.03zm0 2.49a.46.46 0 01-.454-.46.454.454 0 01.908 0 .46.46 0 01-.454.46zm4.552-8.37a.783.783 0 00-.785.78v1.99a.786.786 0 101.571 0v-1.99a.784.784 0 00-.781-.78z" transform="translate(-803.812 -1020.56)"/><circle class="ccls-2" cx="43.938" cy="26.645" r="9.812"/></svg><view id="link-arrow" viewBox="139.75 85.13 22 9"/><svg width="22" height="9" viewBox="0 0 22 9" x="139.75" y="85.13" xmlns="http://www.w3.org/2000/svg"><defs><style>.dcls-1{fill:#fff;fill-rule:evenodd}</style></defs><path class="dcls-1" d="M.3 5.472h16.948l-.1 2.857a.292.292 0 000 .41l.172.172a.28.28 0 00.2.086.285.285 0 00.2-.084l4.193-4.211A.292.292 0 0022 4.5a.283.283 0 00-.084-.2L17.723.087a.289.289 0 00-.407 0l-.172.173a.287.287 0 00-.084.2.278.278 0 00.084.2l.113 2.865H.292A.3.3 0 000 3.82v1.37a.292.292 0 00.3.282z"/></svg><view id="payment" viewBox="0 58.67 53.56 52.25"/><svg id="eГруппа_3" data-name="Группа 3" width="53.56" height="52.25" viewBox="0 0 53.56 52.25" y="58.67" xmlns="http://www.w3.org/2000/svg"><defs><style>.ecls-1,.ecls-2{fill:#a3bbc8}.ecls-1{fill-rule:evenodd}.ecls-2{opacity:.34}</style></defs><path id="ecredit-card" class="ecls-1" d="M1444.43 1042.32a.83.83 0 00-.84.83v8.27a2.164 2.164 0 01-2.16 2.16h-39.34a2.164 2.164 0 01-2.16-2.16v-11.92h27.29a.84.84 0 100-1.68h-27.29v-5.47h9.87a.828.828 0 00.83-.83.837.837 0 00-.83-.84h-9.87v-2.88a2.166 2.166 0 012.16-2.17h25.13a.835.835 0 100-1.67h-25.13a3.839 3.839 0 00-3.83 3.84v23.62a3.837 3.837 0 003.83 3.83h39.34a3.837 3.837 0 003.83-3.83v-8.27a.828.828 0 00-.83-.83zm-17.21-11.64H1413a.837.837 0 00-.83.84.828.828 0 00.83.83h14.22a.837.837 0 00.84-.83.845.845 0 00-.84-.84zm-9.24 11.56h-14.27a.835.835 0 000 1.67h14.27a.835.835 0 100-1.67zm-6.08 3.99h-8.19a.835.835 0 000 1.67h8.19a.835.835 0 000-1.67zm34.63-13.61a.832.832 0 00.84-.84v-4.77a3.038 3.038 0 00-2.39-2.97v-6.02a6.6 6.6 0 10-13.19 0v6.02a3.053 3.053 0 00-2.4 2.97v10.75a3.045 3.045 0 003.04 3.04h11.9a3.039 3.039 0 003.04-3.04v-3.19a.835.835 0 00-1.67 0v3.19a1.379 1.379 0 01-1.37 1.37h-11.9a1.379 1.379 0 01-1.37-1.37v-10.75a1.379 1.379 0 011.37-1.37h11.9a1.379 1.379 0 011.37 1.37v4.77a.83.83 0 00.83.84zm-3.23-8.65h-9.84v-5.95a4.92 4.92 0 119.84 0v5.95zm-4.92 4.32a3.092 3.092 0 00-.83 6.07v2.04a.83.83 0 00.83.84.839.839 0 00.84-.84v-2.04a3.094 3.094 0 00-.84-6.07zm0 4.52a1.425 1.425 0 111.42-1.43 1.428 1.428 0 01-1.42 1.43z" transform="translate(-1398.25 -1011.41)"/><circle class="ecls-2" cx="43.75" cy="42.45" r="9.81"/></svg><view id="play" viewBox="117.75 85.13 22 25"/><svg width="22" height="25" viewBox="0 0 22 25" x="117.75" y="85.13" xmlns="http://www.w3.org/2000/svg"><defs><style>.fcls-1{fill:#fff;fill-rule:evenodd}</style></defs><path id="fForm_24" data-name="Form 24" class="fcls-1" d="M970.684 3900.74l-16.044 9.8a3.228 3.228 0 01-3.062.14 2.685 2.685 0 01-1.579-2.39v-19.59a2.685 2.685 0 011.579-2.39 3.258 3.258 0 013.062.15l16.044 9.79a2.666 2.666 0 011.316 2.25 2.638 2.638 0 01-1.316 2.24z" transform="translate(-950 -3886)"/></svg><view id="support" viewBox="117.75 0 50.875 53.13"/><svg id="gГруппа_1" data-name="Группа 1" width="50.875" height="53.13" viewBox="0 0 50.875 53.13" x="117.75" xmlns="http://www.w3.org/2000/svg"><defs><style>.gcls-1,.gcls-2{fill:#a3bbc8;fill-rule:evenodd}.gcls-1{opacity:.34}</style></defs><path class="gcls-1" d="M263.984 1044.59a9.815 9.815 0 11-9.8 9.82 9.811 9.811 0 019.8-9.82z" transform="translate(-222.906 -1011.09)"/><path class="gcls-2" d="M268.312 1022.67a.937.937 0 00-1.592.99 22.684 22.684 0 01-32.86 30.14.938.938 0 00-1.125 1.5 24.559 24.559 0 0035.577-32.63zm-23.03 21.94h-7.55l4.743-4.75a12.68 12.68 0 003.744-9.03 5.844 5.844 0 10-11.688 0 .938.938 0 001.875 0 3.969 3.969 0 117.938 0 10.836 10.836 0 01-3.195 7.71l-6.344 6.34a.949.949 0 00-.2 1.03.93.93 0 00.866.57h9.813a.935.935 0 10-.002-1.87zm15.039-6.44h-2.6v-1.52a.938.938 0 00-1.875 0v1.52h-5.286l5.286-8.85v4.21a.938.938 0 101.875 0v-7.62a.957.957 0 00-.456-.8.94.94 0 00-1.286.33l-7.875 13.19a.933.933 0 00-.011.94.951.951 0 00.816.48h6.938v5.5a.938.938 0 001.875 0v-5.5h2.6a.94.94 0 00-.001-1.88zm5.33-22.63a.938.938 0 10-1.875.04l.042 1.75a24.556 24.556 0 00-33.549 35.85.93.93 0 00.656.27.92.92 0 00.669-.28.942.942 0 00-.013-1.33 22.679 22.679 0 0115.882-38.87 22.745 22.745 0 0115.107 5.77l-1.843.04a.935.935 0 00.022 1.87h.023l4.06-.09a.934.934 0 00.915-.96z" transform="translate(-222.906 -1011.09)"/></svg><view id="user" viewBox="117.75 53.13 32 32"/><svg viewBox="0 0 32 32" width="32" height="32" x="117.75" y="53.13" xmlns="http://www.w3.org/2000/svg"><path fill="#222933" d="M16 16a7 7 0 10-7-7 7 7 0 007 7zm0-12a5 5 0 11-5 5 5 5 0 015-5z"/><path d="M17 18h-2A11 11 0 004 29a1 1 0 001 1h22a1 1 0 001-1 11 11 0 00-11-11zM6.06 28A9 9 0 0115 20h2a9 9 0 018.94 8z"/></svg></svg>